<svg width="22" height="20" viewBox="0 0 22 20" fill="none" xmlns="http://www.w3.org/2000/svg">
<path d="M5.33745 20H0.791992V6.36364H5.33745V20ZM3.06563 4.54545C1.80836 4.54545 0.791992 3.52636 0.791992 2.27182C0.791992 1.01727 1.81017 0 3.06563 0C4.31836 0 5.33745 1.01909 5.33745 2.27182C5.33745 3.52636 4.31836 4.54545 3.06563 4.54545ZM21.7011 20H17.3311V13.3636C17.3311 11.7809 17.3011 9.74545 15.0593 9.74545C12.7838 9.74545 12.4338 11.4691 12.4338 13.2491V20H8.06472V6.35364H12.2593V8.21818H12.3184C12.902 7.14545 14.3284 6.01455 16.4556 6.01455C20.8829 6.01455 21.7011 8.84091 21.7011 12.5155V20Z" fill="white"/>
</svg>
