<svg width="168" height="36" viewBox="0 0 168 36" fill="none" xmlns="http://www.w3.org/2000/svg">
<g clip-path="url(#clip0_5230_146)">
<path fill-rule="evenodd" clip-rule="evenodd" d="M36.6321 27.3224C33.8452 27.3224 31.0319 26.3495 28.8232 24.3776L31.216 21.5116C32.8722 22.8788 34.6076 23.7465 36.711 23.7465C38.3674 23.7465 39.3665 23.0892 39.3665 22.0112V21.9587C39.3665 20.9332 38.7354 20.4073 35.6593 19.6187C31.9521 18.672 29.5593 17.6467 29.5593 13.992V13.9395C29.5593 10.6003 32.2413 8.3916 36.0012 8.3916C38.6829 8.3916 40.9705 9.23308 42.8372 10.7318L40.7337 13.7816C39.1037 12.6509 37.4997 11.9675 35.9485 11.9675C34.3973 11.9675 33.5821 12.6774 33.5821 13.5714V13.6239C33.5821 14.8333 34.3709 15.2278 37.5524 16.043C41.2858 17.0156 43.3893 18.3565 43.3893 21.5641V21.6168C43.3893 25.2714 40.6022 27.3224 36.6321 27.3224Z" fill="white"/>
<path fill-rule="evenodd" clip-rule="evenodd" d="M65.1847 27.1909H61.6615L57.5071 15.1489L53.353 27.1909H49.8298L43.5459 8.65473H47.8842L51.6966 21.1173L55.8244 8.60205H59.2951L63.4231 21.1173L67.2355 8.65473H71.4685L65.1847 27.1909Z" fill="white"/>
<path fill-rule="evenodd" clip-rule="evenodd" d="M72.9902 27.0594H77.0394V8.65479H72.9902V27.0594Z" fill="white"/>
<path fill-rule="evenodd" clip-rule="evenodd" d="M93.6281 27.0594V15.0438L88.4485 22.9051H88.3433L83.2164 15.1226V27.0594H79.2461V8.65479H83.6106L88.4485 16.4373L93.2864 8.65479H97.6509V27.0594H93.6281Z" fill="white"/>
<path fill-rule="evenodd" clip-rule="evenodd" d="M99.8564 27.0594V8.65479H103.905V23.3785H113.082L111.608 27.0594H99.8564Z" fill="white"/>
<path fill-rule="evenodd" clip-rule="evenodd" d="M123.334 13.3872L120.889 19.3555H125.779L123.334 13.3872ZM128.908 27.0595L127.225 22.9314H119.442L117.76 27.0595H113.632L121.52 8.52319H125.253L133.141 27.0595H128.908Z" fill="white"/>
<path fill-rule="evenodd" clip-rule="evenodd" d="M147.968 27.0594L139.055 15.3591V27.0594H135.059V8.65479H138.792L147.416 19.9867V8.65479H151.412V27.0594H147.968Z" fill="white"/>
<path fill-rule="evenodd" clip-rule="evenodd" d="M153.803 27.0594V8.65479H167.685V12.2568H157.826V15.9902H166.502V19.5925H157.826V23.4574H167.817V27.0594H153.803Z" fill="white"/>
<path fill-rule="evenodd" clip-rule="evenodd" d="M17.4938 10.599C17.0864 10.2717 16.5065 10.2717 16.099 10.599L11.1688 14.5601C10.613 15.0064 10.613 15.8534 11.1688 16.3L16.2736 20.4012C16.2959 20.419 16.3278 20.419 16.3501 20.4012L22.9627 15.0884C22.9934 15.0639 22.9934 15.0174 22.9627 14.9929L17.4938 10.599Z" fill="#19CCC0"/>
<path fill-rule="evenodd" clip-rule="evenodd" d="M11.1722 35.3445L22.7639 26.0316C22.9303 25.8979 23.027 25.696 23.027 25.4823V15.0378L10.2916 25.2698C10.1253 25.4033 10.0283 25.6053 10.0283 25.8189V34.7953C10.0283 35.3865 10.7119 35.7144 11.1722 35.3445Z" fill="#00FFF4"/>
<path fill-rule="evenodd" clip-rule="evenodd" d="M23.0261 15.0342L16.3119 20.431L14.4717 18.9523L23.0261 15.0342Z" fill="#27AFA2"/>
<path fill-rule="evenodd" clip-rule="evenodd" d="M5.53294 25.4024C5.94036 25.7297 6.52027 25.7297 6.92769 25.4024L11.8579 21.4413C12.4137 20.995 12.4137 20.148 11.8579 19.7016L6.75313 15.6004C6.73086 15.5824 6.69892 15.5824 6.67663 15.6004L0.0639955 20.9132C0.0333557 20.9375 0.0333557 20.984 0.0639955 21.0085L5.53294 25.4024Z" fill="#028ACF"/>
<path fill-rule="evenodd" clip-rule="evenodd" d="M11.8548 0.656346L0.263132 9.96918C0.0967477 10.1028 0 10.3049 0 10.5185V20.9628L12.7354 10.7312C12.9018 10.5975 12.9987 10.3954 12.9987 10.1818V1.20569C12.9987 0.614517 12.3152 0.286397 11.8548 0.656346Z" fill="#02AAFF"/>
<path fill-rule="evenodd" clip-rule="evenodd" d="M0 20.9649L6.71422 15.5684L8.55446 17.0468L0 20.9649Z" fill="#0578A5"/>
</g>
<defs>
<clipPath id="clip0_5230_146">
<rect width="168" height="35" fill="white" transform="translate(0 0.5)"/>
</clipPath>
</defs>
</svg>
