<svg width="32" height="43" viewBox="0 0 32 43" fill="none" xmlns="http://www.w3.org/2000/svg">
<g clip-path="url(#clip0_5284_112)">
<path d="M16 5.5C7.2 5.5 0 12.7 0 21.5C0 30.3 7.2 37.5 16 37.5C24.8 37.5 32 30.3 32 21.5C32 12.7 24.8 5.5 16 5.5ZM16 8.05C17.7631 8.05 19.4498 8.36817 21 9C20.9618 9.42464 20.6298 9.89031 20.5 10.15C20.34 10.63 19.98 11.28 19.5 11.6C19.18 11.92 18.73 12.38 18.25 12.7C17.77 13.02 17.28 13.48 16.8 13.8C16.48 13.96 16.31 14.15 16.15 14.15H16C15.68 13.83 15.7 13.03 15.7 12.55C15.7 11.75 16.16 11.25 16 10.45C16 10.29 15.85 9 15.85 9C15.21 8.84 14.54 9 14.7 8.2C14.7077 8.17692 14.7402 8.17162 14.75 8.15C15.1666 8.11017 15.5739 8.05 16 8.05ZM9.85 10.45C10.335 10.44 10.8 10.48 11.2 10.6C11.68 10.76 12.18 11.08 12.5 11.4C12.82 11.72 13.3 12.22 13.3 12.7C13.3 12.86 13.26 12.84 13.1 13C12.94 13.16 12.81 13.2 12.65 13.2C12.17 13.2 11.67 13.16 11.35 13L10.7 12.4C9.74 12.08 8.31 14.16 8.15 14.8C7.99 15.28 8 16.39 8.8 16.55C9.28 16.55 10.22 15.57 10.7 15.25C11.02 15.09 11.18 14.96 11.5 14.8C12.78 14.64 13.78 15.73 14.1 16.85C14.58 18.13 12.16 19.08 11.2 19.4C10.88 19.56 10.72 19.24 10.4 19.4C9.6 19.72 8.65 20.69 8.65 21.65C8.49 22.45 8.46 23.25 8.3 24.05C8.14 24.05 8 24.06 8 23.9V23.6C8 23.12 7.83 22.46 7.35 22.3C7.19 22.14 7.21 22.15 7.05 22.15C6.57 22.15 6.08 21.68 5.6 22C5.28 22.32 4.95 22.77 4.95 23.25C4.95 23.41 4.94 23.59 5.1 23.75C5.42 23.91 5.78 23.59 6.1 23.75C6.42 23.75 6.4 24.04 6.4 24.2C6.72 24.68 7.02 25.34 7.5 25.5H8.65H10.7C11.18 25.66 11.98 25.83 12.3 26.15C12.46 26.47 12.49 26.78 12.65 27.1C13.45 27.9 14.39 27.88 15.35 28.2C15.67 28.36 15.85 28.53 15.85 28.85C16.01 29.33 15.86 29.98 15.7 30.3C15.54 30.78 15.37 31.43 15.05 31.75C14.73 32.07 14.42 32.24 14.1 32.4C13.62 32.72 13.28 33.32 12.8 33.8C12.8 33.88 12.63 34.19 12.45 34.45C11.2332 34.1096 10.0557 33.6011 9 32.95C8.96545 32.7071 8.95 32.4702 8.95 32.4C8.79 31.92 8.66 31.28 8.5 30.8C8.18 30 7.5 29.16 7.5 28.2C7.5 27.4 7.68 26.64 7.2 26C6.56 25.2 5.29 25.18 4.65 24.7C3.89794 24.1986 3.17129 23.4903 2.65 22.75C2.61017 22.3334 2.55 21.9261 2.55 21.5C2.55 17.1552 4.69993 13.2652 7.95 10.8C8.57863 10.612 9.22996 10.4628 9.85 10.45ZM24.45 11.1C27.4745 13.5753 29.45 17.3348 29.45 21.5C29.45 25.9457 27.2289 29.9462 23.85 32.4C23.6887 31.8854 23.4647 31.3736 23.35 30.8C23.03 30.16 22.86 29.49 22.7 28.85C22.54 28.37 22.58 27.58 22.1 27.1C21.94 26.78 21.62 26.76 21.3 26.6C20.18 26.12 18.7 26.77 17.9 25.65C17.58 25.17 17.75 24.69 17.75 24.05C18.07 23.57 18.23 23.08 18.55 22.6C18.87 21.8 19.34 21.2 19.5 20.4C19.66 20.08 19.54 19.57 19.7 19.25C19.86 19.09 20.18 18.96 20.5 18.8C20.66 18.64 20.8 18.61 20.8 18.45C20.8 18.29 20.65 18.31 20.65 18.15C20.65 17.99 20.79 17.66 20.95 17.5C21.75 16.7 22.55 16.05 23.35 15.25C23.51 15.25 23.5 15.1 23.5 15.1C23.66 14.94 23.51 14.8 23.35 14.8C23.03 14.64 22.87 14.61 22.55 14.45C22.39 14.45 22.25 14.46 22.25 14.3C22.09 14.14 22.24 13.81 22.4 13.65L23.35 12.2C23.6614 11.8886 23.9912 11.2803 24.45 11.1Z" fill="#B4BAC4"/>
</g>
<defs>
<clipPath id="clip0_5284_112">
<rect width="32" height="32" fill="white" transform="translate(0 5.5)"/>
</clipPath>
</defs>
</svg>
