<svg width="22" height="20" viewBox="0 0 22 20" fill="none" xmlns="http://www.w3.org/2000/svg">
<path d="M10.8578 0C5.24878 0 0.701172 4.54761 0.701172 10.1566C0.701172 14.9158 3.97836 18.898 8.39647 20C8.34908 19.8629 8.31861 19.7038 8.31861 19.5066V17.7706C7.90642 17.7706 7.21577 17.7706 7.04226 17.7706C6.34738 17.7706 5.72953 17.4719 5.42991 16.9166C5.09728 16.2996 5.03972 15.3559 4.21535 14.7787C3.97074 14.5865 4.15695 14.3673 4.43879 14.397C4.95932 14.5442 5.39097 14.9014 5.79724 15.4312C6.20181 15.9619 6.39224 16.0821 7.14806 16.0821C7.51454 16.0821 8.063 16.0609 8.57929 15.9797C8.85691 15.2747 9.3368 14.6255 9.92335 14.3191C6.54121 13.9712 4.92716 12.2886 4.92716 10.0042C4.92716 9.02074 5.34612 8.0694 6.05792 7.26788C5.82432 6.47228 5.53063 4.84977 6.14764 4.23191C7.66943 4.23191 8.58945 5.21879 8.81036 5.4854C9.56871 5.22556 10.4016 5.07829 11.2767 5.07829C12.1536 5.07829 12.9898 5.22556 13.7498 5.48709C13.9682 5.22218 14.8891 4.23191 16.4142 4.23191C17.0338 4.85061 16.7367 6.4799 16.5006 7.2738C17.2082 8.07364 17.6246 9.02243 17.6246 10.0042C17.6246 12.2869 16.0131 13.9687 12.636 14.3182C13.5653 14.8032 14.2433 16.1659 14.2433 17.1926V19.5066C14.2433 19.5946 14.2238 19.6581 14.2137 19.7334C18.1713 18.3462 21.0143 14.5882 21.0143 10.1566C21.0143 4.54761 16.4667 0 10.8578 0Z" fill="white"/>
</svg>
