<svg width="20" height="16" viewBox="0 0 20 16" fill="none" xmlns="http://www.w3.org/2000/svg">
<path d="M19.7911 1.89418C19.066 2.21551 18.2882 2.43196 17.4703 2.53055C18.3051 2.03049 18.9462 1.23817 19.2471 0.296187C18.4669 0.758538 17.6011 1.09479 16.6816 1.27549C15.9454 0.489848 14.8954 0 13.7338 0C11.5026 0 9.69405 1.80855 9.69405 4.03899C9.69405 4.35521 9.73019 4.66318 9.79972 4.95937C6.44267 4.79085 3.46587 3.18264 1.47309 0.738897C1.12545 1.33677 0.926678 2.03089 0.926678 2.77057C0.926678 4.17176 1.63847 5.40758 2.72344 6.13312C2.06036 6.11191 1.43852 5.93003 0.894074 5.62716C0.894074 5.64445 0.894074 5.66095 0.894074 5.67862C0.894074 7.63644 2.28623 9.26665 4.13288 9.63983C3.79506 9.73254 3.43798 9.78125 3.06952 9.78125C2.80868 9.78125 2.55531 9.75611 2.30823 9.70818C2.824 11.3113 4.31476 12.4815 6.08206 12.5141C4.70051 13.5971 2.95874 14.2421 1.06574 14.2421C0.738516 14.2421 0.417974 14.2233 0.102539 14.1856C1.88909 15.3322 4.01347 16 6.29419 16C13.7244 16 17.7881 9.84528 17.7881 4.50919C17.7881 4.33321 17.7838 4.15801 17.7763 3.98596C18.5651 3.41637 19.2502 2.70418 19.7911 1.89418Z" fill="white"/>
</svg>
