<svg width="25" height="18" viewBox="0 0 25 18" fill="none" xmlns="http://www.w3.org/2000/svg">
<path d="M23.5824 3.09375C23.3574 1.85625 22.2887 0.95625 21.0512 0.675C19.1949 0.28125 15.7637 0 12.0512 0C8.33867 0 4.85117 0.28125 2.99492 0.675C1.75742 0.95625 0.688672 1.8 0.463672 3.09375C0.238672 4.5 0.0136719 6.46875 0.0136719 9C0.0136719 11.5312 0.238672 13.5 0.519922 14.9062C0.744922 16.1437 1.81367 17.0437 3.05117 17.325C5.01992 17.7188 8.39492 18 12.1074 18C15.8199 18 19.1949 17.7188 21.1637 17.325C22.4012 17.0437 23.4699 16.2 23.6949 14.9062C23.9199 13.5 24.2012 11.475 24.2574 9C24.1449 6.46875 23.8637 4.5 23.5824 3.09375ZM9.01367 12.9375V5.0625L15.8762 9L9.01367 12.9375Z" fill="white"/>
</svg>
